<svg width="16" height="16" viewBox="0 0 16 16" fill="none" xmlns="http://www.w3.org/2000/svg">
<path d="M15.5174 13.5696C16.0652 14.1174 16.0652 14.9696 15.5174 15.5174C15.2435 15.7913 14.9087 15.9131 14.5435 15.9131C14.1783 15.9131 13.8435 15.7913 13.5696 15.5174L8.00001 9.94786L2.43044 15.5174C2.15653 15.7913 1.82175 15.9131 1.45653 15.9131C1.09131 15.9131 0.756529 15.7913 0.482616 15.5174C-0.0652097 14.9696 -0.0652097 14.1174 0.482616 13.5696L6.05218 8.00004L0.482616 2.43047C-0.0652097 1.88265 -0.0652097 1.03047 0.482616 0.482647C1.03044 -0.0651792 1.88262 -0.0651792 2.43044 0.482647L8.00001 6.05221L13.5696 0.482647C14.1174 -0.0651792 14.9696 -0.0651792 15.5174 0.482647C16.0652 1.03047 16.0652 1.88265 15.5174 2.43047L9.94783 8.00004L15.5174 13.5696Z" fill="black"/>
</svg>
