<svg width="28" height="28" viewBox="0 0 28 28" fill="none" xmlns="http://www.w3.org/2000/svg">
<path d="M14 0C11.2311 0 8.52431 0.821086 6.22202 2.35943C3.91973 3.89777 2.12532 6.08427 1.06569 8.64243C0.00606596 11.2006 -0.271181 14.0155 0.269012 16.7313C0.809205 19.447 2.14258 21.9416 4.10051 23.8995C6.05845 25.8574 8.55301 27.1908 11.2687 27.731C13.9845 28.2712 16.7994 27.9939 19.3576 26.9343C21.9157 25.8747 24.1022 24.0803 25.6406 21.778C27.1789 19.4757 28 16.7689 28 14C28 10.287 26.525 6.72601 23.8995 4.1005C21.274 1.475 17.713 0 14 0ZM14 26C11.6266 26 9.30655 25.2962 7.33316 23.9776C5.35977 22.6591 3.8217 20.7849 2.91345 18.5922C2.0052 16.3995 1.76756 13.9867 2.23058 11.6589C2.69361 9.33114 3.83649 7.19295 5.51472 5.51472C7.19296 3.83649 9.33115 2.6936 11.6589 2.23058C13.9867 1.76755 16.3995 2.00519 18.5922 2.91345C20.7849 3.8217 22.6591 5.35977 23.9776 7.33316C25.2962 9.30655 26 11.6266 26 14C26 17.1826 24.7357 20.2348 22.4853 22.4853C20.2348 24.7357 17.1826 26 14 26Z" fill="white"/>
<path d="M20.71 7.28994C20.617 7.19621 20.5064 7.12182 20.3846 7.07105C20.2627 7.02028 20.132 6.99414 20 6.99414C19.868 6.99414 19.7373 7.02028 19.6154 7.07105C19.4936 7.12182 19.383 7.19621 19.29 7.28994L14 12.5899L8.71 7.28994C8.5217 7.10164 8.2663 6.99585 8 6.99585C7.7337 6.99585 7.4783 7.10164 7.29 7.28994C7.1017 7.47824 6.99591 7.73364 6.99591 7.99994C6.99591 8.26624 7.1017 8.52164 7.29 8.70994L12.59 13.9999L7.29 19.2899C7.19627 19.3829 7.12188 19.4935 7.07111 19.6154C7.02034 19.7372 6.9942 19.8679 6.9942 19.9999C6.9942 20.132 7.02034 20.2627 7.07111 20.3845C7.12188 20.5064 7.19627 20.617 7.29 20.7099C7.38296 20.8037 7.49356 20.8781 7.61542 20.9288C7.73728 20.9796 7.86799 21.0057 8 21.0057C8.13201 21.0057 8.26272 20.9796 8.38458 20.9288C8.50644 20.8781 8.61704 20.8037 8.71 20.7099L14 15.4099L19.29 20.7099C19.383 20.8037 19.4936 20.8781 19.6154 20.9288C19.7373 20.9796 19.868 21.0057 20 21.0057C20.132 21.0057 20.2627 20.9796 20.3846 20.9288C20.5064 20.8781 20.617 20.8037 20.71 20.7099C20.8037 20.617 20.8781 20.5064 20.9289 20.3845C20.9797 20.2627 21.0058 20.132 21.0058 19.9999C21.0058 19.8679 20.9797 19.7372 20.9289 19.6154C20.8781 19.4935 20.8037 19.3829 20.71 19.2899L15.41 13.9999L20.71 8.70994C20.8037 8.61698 20.8781 8.50638 20.9289 8.38452C20.9797 8.26266 21.0058 8.13195 21.0058 7.99994C21.0058 7.86793 20.9797 7.73722 20.9289 7.61536C20.8781 7.4935 20.8037 7.3829 20.71 7.28994Z" fill="white"/>
</svg>
