<svg width="42" height="42" viewBox="0 0 42 42" fill="none" xmlns="http://www.w3.org/2000/svg">
<path d="M21 0.183594C16.8829 0.183594 12.8583 1.40445 9.43509 3.69176C6.01187 5.97908 3.3438 9.23014 1.76827 13.0338C0.192735 16.8375 -0.219496 21.0229 0.583704 25.0609C1.3869 29.0988 3.36946 32.808 6.28066 35.7192C9.19187 38.6304 12.901 40.6129 16.9389 41.4161C20.9769 42.2193 25.1623 41.8071 28.966 40.2316C32.7697 38.656 36.0207 35.9879 38.3081 32.5647C40.5954 29.1415 41.8162 25.1169 41.8162 20.9998C41.8107 15.4807 39.6157 10.1893 35.7131 6.28667C31.8105 2.38407 26.5191 0.189153 21 0.183594ZM29.1287 22.3123H22.3125V29.1286C22.3125 29.4767 22.1742 29.8105 21.9281 30.0567C21.6819 30.3028 21.3481 30.4411 21 30.4411C20.6519 30.4411 20.318 30.3028 20.0719 30.0567C19.8258 29.8105 19.6875 29.4767 19.6875 29.1286V22.3123H12.8712C12.5231 22.3123 12.1893 22.1741 11.9431 21.9279C11.697 21.6818 11.5587 21.3479 11.5587 20.9998C11.5587 20.6517 11.697 20.3179 11.9431 20.0718C12.1893 19.8256 12.5231 19.6873 12.8712 19.6873H19.6875V12.8711C19.6875 12.523 19.8258 12.1892 20.0719 11.943C20.318 11.6969 20.6519 11.5586 21 11.5586C21.3481 11.5586 21.6819 11.6969 21.9281 11.943C22.1742 12.1892 22.3125 12.523 22.3125 12.8711V19.6873H29.1287C29.4768 19.6873 29.8107 19.8256 30.0568 20.0718C30.3029 20.3179 30.4412 20.6517 30.4412 20.9998C30.4412 21.3479 30.3029 21.6818 30.0568 21.9279C29.8107 22.1741 29.4768 22.3123 29.1287 22.3123Z" fill="#E30224"/>
</svg>
