<svg width="36" height="36" viewBox="0 0 36 36" fill="none" xmlns="http://www.w3.org/2000/svg">
<path fill-rule="evenodd" clip-rule="evenodd" d="M18 10.875C20.2398 10.875 21.9375 12.5678 21.9375 14.5147C21.9375 16.4616 20.2398 18.1543 18 18.1543C15.7602 18.1543 14.0625 16.4616 14.0625 14.5147C14.0625 12.5678 15.7602 10.875 18 10.875ZM24.1875 14.5147C24.1875 11.1986 21.352 8.625 18 8.625C14.648 8.625 11.8125 11.1986 11.8125 14.5147C11.8125 17.8308 14.648 20.4043 18 20.4043C21.352 20.4043 24.1875 17.8308 24.1875 14.5147Z" fill="black"/>
<path fill-rule="evenodd" clip-rule="evenodd" d="M18 20.4045C21.4311 20.4045 24.3074 22.4436 25.3991 25.2296C25.5302 25.5638 25.4613 25.856 25.2306 26.1154C24.9761 26.4016 24.5259 26.6252 24 26.6252H12C11.474 26.6252 11.0238 26.4016 10.7694 26.1154C10.5386 25.856 10.4698 25.5638 10.6008 25.2296C11.6926 22.4436 14.5689 20.4045 18 20.4045ZM27.494 24.4086C26.0514 20.7272 22.3205 18.1545 18 18.1545C13.6795 18.1545 9.94857 20.7272 8.50593 24.4086C8.03241 25.6169 8.35847 26.7903 9.08795 27.6107C9.79371 28.4043 10.8691 28.8752 12 28.8752H24C25.1309 28.8752 26.2062 28.4043 26.912 27.6107C27.6414 26.7903 27.9675 25.6169 27.494 24.4086ZM25.5002 10.125C27.1857 10.125 28.6685 11.5994 28.6685 13.5662C28.6685 15.533 27.1857 17.0073 25.5002 17.0073C24.8789 17.0073 24.3752 17.511 24.3752 18.1323C24.3752 18.7537 24.8789 19.2573 25.5002 19.2573C28.5569 19.2573 30.9185 16.6431 30.9185 13.5662C30.9185 10.4893 28.5569 7.875 25.5002 7.875C24.8789 7.875 24.3752 8.37869 24.3752 9C24.3752 9.62132 24.8789 10.125 25.5002 10.125Z" fill="black"/>
<path fill-rule="evenodd" clip-rule="evenodd" d="M25.5008 19.2571C29.0304 19.2571 32.0084 22.3217 32.0084 26.2498C32.0084 26.8711 32.5121 27.3748 33.1334 27.3748C33.7547 27.3748 34.2584 26.8711 34.2584 26.2498C34.2584 21.2116 30.4017 17.0071 25.5008 17.0071C24.8795 17.0071 24.3758 17.5108 24.3758 18.1321C24.3758 18.7534 24.8795 19.2571 25.5008 19.2571ZM10.6332 10.125C8.94765 10.125 7.46484 11.5994 7.46484 13.5662C7.46484 15.5329 8.94765 17.0073 10.6332 17.0073C11.2545 17.0073 11.7582 17.511 11.7582 18.1323C11.7582 18.7537 11.2545 19.2573 10.6332 19.2573C7.57641 19.2573 5.21484 16.6431 5.21484 13.5662C5.21484 10.4893 7.57641 7.875 10.6332 7.875C11.2545 7.875 11.7582 8.37868 11.7582 9C11.7582 9.62131 11.2545 10.125 10.6332 10.125Z" fill="black"/>
<path fill-rule="evenodd" clip-rule="evenodd" d="M10.6326 19.2573C7.10284 19.2573 4.125 22.3218 4.125 26.25C4.125 26.8713 3.62131 27.375 3 27.375C2.37868 27.375 1.875 26.8713 1.875 26.25C1.875 21.2118 5.7316 17.0073 10.6326 17.0073C11.2539 17.0073 11.7576 17.511 11.7576 18.1323C11.7576 18.7536 11.2539 19.2573 10.6326 19.2573Z" fill="black"/>
</svg>
