<svg width="31" height="31" viewBox="0 0 31 31" fill="none" xmlns="http://www.w3.org/2000/svg">
<path d="M11.828 26.8299V22.8687C11.828 21.8612 12.6494 21.0425 13.6671 21.0357H17.3949C18.4175 21.0357 19.2464 21.8564 19.2464 22.8687V26.8422C19.2462 27.6976 19.9359 28.3968 20.7997 28.4168H23.2849C25.7624 28.4168 27.7708 26.4285 27.7708 23.9759V12.7074C27.7576 11.7425 27.2999 10.8364 26.5282 10.247L18.0287 3.46868C16.5397 2.28844 14.423 2.28844 12.934 3.46868L4.47174 10.2593C3.69704 10.8463 3.23867 11.7539 3.22913 12.7197V23.9759C3.22913 26.4285 5.23751 28.4168 7.71497 28.4168H10.2002C11.0855 28.4168 11.8032 27.7063 11.8032 26.8299" stroke="black" stroke-width="2" stroke-linecap="round" stroke-linejoin="round"/>
</svg>
