<svg width="22" height="26" viewBox="0 0 22 26" fill="none" xmlns="http://www.w3.org/2000/svg">
<path fill-rule="evenodd" clip-rule="evenodd" d="M1.29889 10.9892C1.3169 5.68843 5.62859 1.40593 10.9293 1.42388C16.2301 1.44195 20.5126 5.75364 20.4946 11.0544V11.1631C20.4293 14.6087 18.5054 17.7935 16.1467 20.2826C14.7978 21.6834 13.2914 22.9235 11.6576 23.9783C11.2207 24.3562 10.5727 24.3562 10.1358 23.9783C7.70022 22.393 5.56256 20.3914 3.82063 18.0652C2.26808 16.0368 1.3866 13.5747 1.29889 11.0218V10.9892Z" stroke="black" stroke-width="2" stroke-linecap="round" stroke-linejoin="round"/>
<path d="M10.8962 14.2502C12.5952 14.2502 13.9724 12.8729 13.9724 11.1739C13.9724 9.47494 12.5952 8.09766 10.8962 8.09766C9.19723 8.09766 7.81995 9.47494 7.81995 11.1739C7.81995 12.8729 9.19723 14.2502 10.8962 14.2502Z" stroke="#200E32" stroke-width="1.5" stroke-linecap="round" stroke-linejoin="round"/>
</svg>
