<svg width="136" height="138" viewBox="0 0 136 138" fill="none" xmlns="http://www.w3.org/2000/svg">
<path d="M68.017 2.11309C68.3774 2.11398 68.3774 2.11398 68.745 2.11488C81.6217 2.16572 94.8327 6.11925 105.352 13.7448C105.75 14.0318 105.75 14.0318 106.156 14.3247C111.909 18.5691 116.91 23.4276 121.223 29.1392C121.339 29.2922 121.455 29.4452 121.575 29.6031C128.061 38.222 132.16 48.4561 133.811 59.1034C133.846 59.3198 133.881 59.5362 133.917 59.759C135.582 70.4288 134.237 82.1 130.253 92.0914C130.166 92.3122 130.079 92.533 129.99 92.7606C126.599 101.274 121.764 108.565 115.477 115.183C115.249 115.423 115.022 115.663 114.787 115.91C113.429 117.309 112.009 118.58 110.488 119.798C109.991 120.197 109.5 120.602 109.015 121.014C100.982 127.828 90.9641 132.063 80.7243 134.151C80.5034 134.197 80.2825 134.243 80.0548 134.29C64.8524 137.285 48.583 133.317 35.6872 124.979C29.6516 120.878 29.6516 120.878 28.4588 118.482C28.3561 117.692 28.3561 117.692 28.4588 116.832C29.0401 116.162 29.0401 116.162 29.827 115.733C31.2714 115.797 32.2105 116.423 33.3501 117.245C39.2586 121.336 45.8431 124.36 52.8471 125.973C53.0263 126.014 53.2054 126.056 53.3902 126.099C57.0779 126.891 60.7539 127.108 64.511 127.09C64.7298 127.089 64.9485 127.089 65.1739 127.088C77.227 127.042 89.7301 124.586 100.411 118.787C101.036 118.448 101.665 118.118 102.294 117.788C106.761 115.413 110.764 112.688 114.382 109.135C114.634 108.899 114.887 108.663 115.147 108.419C121.242 102.571 127.319 92.7039 127.533 84.0174C127.534 83.4095 127.529 82.8026 127.517 82.1951C127.454 82.3857 127.391 82.5762 127.326 82.7725C124.129 92.3694 120.073 100.501 113.119 107.904C112.74 108.311 112.369 108.725 111.998 109.139C111.764 109.393 111.529 109.647 111.287 109.908C111.079 110.137 110.871 110.366 110.657 110.601C110.004 111.06 110.004 111.06 109.169 111.021C108.206 110.739 107.358 110.381 106.447 109.96C106.605 108.989 106.938 108.546 107.637 107.868C107.825 107.683 108.013 107.498 108.207 107.307C108.405 107.117 108.603 106.926 108.807 106.73C119.614 96.2128 125.903 82.0545 126.217 66.9381C125.919 52.5965 120.453 39.534 110.44 29.3123C110.04 28.9017 109.649 28.4829 109.258 28.0633C100.25 18.5771 87.1895 13.32 74.4305 11.8205C74.1276 11.7844 73.8244 11.7482 73.5123 11.711C64.3626 10.831 55.38 12.1983 46.7928 15.3942C46.5756 15.4731 46.3585 15.5519 46.1348 15.6331C39.672 18.0156 33.9712 22.2036 29.0061 26.9399C28.8696 27.0697 28.7331 27.1992 28.5924 27.3326C25.1906 30.5851 22.3775 34.1554 19.9758 38.2109C19.8558 38.4128 19.7358 38.6147 19.6122 38.8229C11.8969 51.9654 9.8084 68.0104 13.5463 82.7781C14.6321 86.8155 16.0046 90.9148 18.1244 94.5355C18.6636 95.4894 18.8217 95.9639 18.6076 97.0396C17.9238 97.8075 17.4537 98.0925 16.4526 98.3111C14.924 98.0039 13.8518 96.813 12.9829 95.5501C12.767 95.2076 12.5555 94.8618 12.348 94.5139C12.2331 94.3241 12.1182 94.1343 11.9997 93.9387C6.88145 85.2936 4.87873 75.652 4.37821 65.701C3.42285 66.6607 3.80998 69.7461 3.79671 71.0786C3.80975 72.7501 3.91297 74.4148 4.00655 76.0832C4.1592 79.0352 4.1293 81.9891 4.10456 84.944C3.57712 84.7225 3.57712 84.7225 3.01 84.3942C2.75781 83.716 2.58952 83.1209 2.4456 82.4183C2.40123 82.2113 2.35689 82.0041 2.31119 81.7908C2.16997 81.1023 2.04065 80.4125 1.91542 79.7208C1.87331 79.4906 1.8312 79.2603 1.78782 79.0233C-1.12617 62.3069 3.24228 44.8487 12.8238 31.0254C14.2881 28.9586 15.861 27.0515 17.6113 25.2241C18.2083 24.5978 18.7714 23.9613 19.3259 23.2976C20.2272 22.2521 21.2292 21.3461 22.2633 20.4348C22.7355 20.0151 23.2006 19.5872 23.657 19.1505C32.9025 10.347 45.7554 4.68371 58.2857 2.74879C58.7664 2.67381 58.7664 2.67381 59.2572 2.59732C62.1819 2.18372 65.0662 2.09995 68.017 2.11309ZM17.2394 35.187C14.5053 37.5158 12.1175 41.5197 11.4929 45.0835C11.5737 45.4525 11.6635 45.8198 11.7665 46.1832C13.1303 44.2693 14.2306 42.2342 15.301 40.1465C15.584 39.5955 15.871 39.0469 16.1581 38.4983C16.3389 38.1482 16.5193 37.7979 16.6996 37.4475C16.8625 37.1321 17.0255 36.8168 17.1933 36.4917C17.2988 36.2426 17.4043 35.9934 17.513 35.7368C17.4227 35.5555 17.3324 35.3739 17.2394 35.187Z" fill="#E20325"/>
<path d="M49.5227 36.6485C55.3072 39.6569 60.4161 44.5113 64.5793 49.4818C64.8035 49.7437 65.0274 50.0057 65.2582 50.2754C66.9565 52.266 68.5883 54.3016 70.1879 56.3726C70.6255 56.9379 71.0656 57.501 71.506 58.0639C74.2799 61.617 76.9523 65.2401 79.5726 68.9088C81.7221 71.9169 83.9514 74.8607 86.197 77.7967C86.4702 78.154 86.7429 78.5116 87.0158 78.8695C87.9833 80.1357 88.955 81.3987 89.9307 82.6586C90.1028 82.8809 90.2749 83.1032 90.4522 83.3319C90.5833 83.5012 90.7141 83.6702 90.8489 83.8445C90.8485 83.6188 90.848 83.3932 90.8475 83.1608C90.8353 77.6655 90.8264 72.1702 90.8208 66.6749C90.818 64.0173 90.814 61.3599 90.8077 58.7023C90.8023 56.3851 90.7987 54.0682 90.7976 51.7512C90.7969 50.525 90.7952 49.299 90.7912 48.0727C90.7875 46.9169 90.7863 45.7613 90.7873 44.6055C90.787 44.183 90.7858 43.7603 90.7837 43.3376C90.7568 37.6302 90.7568 37.6302 91.9777 36.1149C93.0094 35.619 93.8306 35.5084 94.9535 35.7367C95.9248 36.3306 96.4803 36.8693 96.8693 37.936C96.9225 38.7572 96.9452 39.5528 96.9424 40.374C96.9436 40.6231 96.9448 40.872 96.9462 41.1286C96.9495 41.9646 96.949 42.8006 96.9488 43.6368C96.9504 44.2356 96.952 44.8343 96.9541 45.433C96.9591 47.0609 96.9602 48.6886 96.9607 50.3165C96.9612 51.6747 96.9633 53.0327 96.9652 54.3909C96.9699 57.778 96.9708 61.165 96.9706 64.5521C96.9703 67.6757 96.9764 70.7989 96.9846 73.9225C96.9919 76.76 96.9947 79.5975 96.9945 82.4349C96.9942 84.1304 96.9959 85.8256 97.0015 87.5211C97.0069 89.1154 97.0069 90.7096 97.0029 92.3041C97.0025 92.8893 97.0036 93.4747 97.0069 94.0601C97.0111 94.8588 97.0088 95.6573 97.0046 96.4562C97.0074 96.6879 97.0102 96.9199 97.013 97.1588C96.9919 98.9598 96.3799 99.8912 95.2274 101.266C93.6948 102.1 92.0087 101.92 90.3455 101.531C80.8358 98.3652 74.5821 87.5397 69.258 79.7146C65.862 74.7244 62.2659 69.9118 58.5592 65.151C58.4171 64.9685 58.275 64.786 58.1285 64.5978C57.4933 63.7824 56.8569 62.968 56.2184 62.1552C55.8048 61.6282 55.3925 61.1001 54.9827 60.5702C53.7458 58.9856 52.4233 57.5027 51.0609 56.0278C50.4834 55.3998 49.9164 54.7662 49.3581 54.1207C48.6212 53.2695 47.8807 52.4214 47.1348 51.5779C46.9329 51.3491 46.7312 51.1201 46.5232 50.8843C45.9684 50.2613 45.9685 50.2613 45.1508 49.7568C44.9625 57.0153 44.8514 64.2708 44.8601 71.532C44.8605 71.8818 44.861 72.2319 44.8612 72.5924C44.8645 75.0946 44.8706 77.5967 44.8772 80.0989C44.8837 82.64 44.8891 85.1811 44.8924 87.7223C44.8943 88.7224 44.8976 89.7223 44.9011 90.7222C44.9023 91.3343 44.9032 91.946 44.9039 92.5578C44.9053 92.8292 44.9067 93.1004 44.9081 93.38C44.9086 98.955 44.9086 98.955 43.509 100.613C42.7558 100.938 42.13 100.995 41.3198 100.888C39.9437 100.236 39.4114 99.539 38.8571 98.1391C38.7433 97.315 38.745 96.5013 38.7511 95.6701C38.7494 95.4244 38.748 95.1786 38.7466 94.9256C38.7426 94.1039 38.7445 93.2822 38.7466 92.4605C38.745 91.8705 38.7431 91.2807 38.7408 90.691C38.7358 89.0899 38.7363 87.4886 38.7377 85.8876C38.7386 84.5507 38.737 83.2138 38.7354 81.8769C38.7314 78.7225 38.7318 75.5684 38.7351 72.414C38.7382 69.1608 38.7344 65.9074 38.7269 62.6542C38.7208 59.8603 38.7192 57.0664 38.7206 54.2725C38.7215 52.6042 38.7211 50.9358 38.7164 49.2675C38.7119 47.6984 38.7131 46.1293 38.7182 44.5602C38.7192 43.985 38.7185 43.4095 38.7157 42.8343C38.7119 42.0477 38.7152 41.2616 38.7199 40.475C38.7173 40.2483 38.7147 40.0215 38.7119 39.7879C38.7316 38.2239 39.0967 37.0516 39.9516 35.7367C42.3365 33.4135 46.9362 35.4994 49.5227 36.6485Z" fill="#E30224"/>
<path d="M59.6539 115.733C60.658 116.012 61.6133 116.39 62.5784 116.781C66.1285 118.207 69.5217 118.915 73.3531 118.895C73.6964 118.893 74.0399 118.892 74.3938 118.891C78.5701 118.815 82.3875 117.805 86.2485 116.26C87.0282 116.005 87.5738 115.914 88.3863 116.008C89.3659 116.73 89.7104 117.134 89.9254 118.345C89.7062 119.58 89.3406 119.885 88.3863 120.682C87.6561 121.042 86.9062 121.286 86.1287 121.523C85.912 121.592 85.6951 121.661 85.4719 121.732C77.0436 124.351 67.1382 125.468 58.833 121.781C58.0285 121.298 57.3251 120.777 56.6439 120.132C56.495 119.996 56.3461 119.86 56.1927 119.719C55.6107 119.07 55.5833 118.515 55.5493 117.658C56.4385 115.692 57.6887 115.497 59.6539 115.733Z" fill="#DF0426"/>
<path d="M78.3302 17.0096C79.1671 17.8439 79.505 18.5993 79.6299 19.793C79.3221 20.8852 79.0395 21.5115 78.1935 22.2671C77.0694 22.6777 76.0902 22.5209 74.9959 22.0291C74.4303 21.7241 73.8743 21.4053 73.3191 21.0816C67.2704 17.7106 59.5697 17.5029 52.9582 19.3072C50.5932 20.0276 48.1858 20.8803 45.972 21.9922C45.0144 22.0437 45.0144 22.0437 44.0566 21.9922C43.876 21.8108 43.6955 21.6293 43.5093 21.4424C43.558 20.7224 43.6896 20.4272 44.2254 19.9422C49.4722 16.778 56.0813 15.2312 62.1169 14.5699C62.383 14.5398 62.6489 14.5096 62.923 14.4786C67.8713 13.9919 74.181 13.7886 78.3302 17.0096Z" fill="#DE0728"/>
</svg>
