<svg width="192" height="29" viewBox="0 0 192 29" fill="none" xmlns="http://www.w3.org/2000/svg">
<path d="M17.62 28C16.012 25.144 14.272 22.324 12.4 19.54C10.528 16.756 8.536 14.128 6.424 11.656V28H0.88V3.052H5.452C6.244 3.844 7.12 4.816 8.08 5.968C9.04 7.12 10.012 8.356 10.996 9.676C12.004 10.972 13 12.328 13.984 13.744C14.968 15.136 15.892 16.48 16.756 17.776V3.052H22.336V28H17.62ZM45.4429 18.496C45.4429 19.984 45.2269 21.352 44.7949 22.6C44.3629 23.824 43.7389 24.88 42.9229 25.768C42.1069 26.632 41.1229 27.304 39.9709 27.784C38.8429 28.264 37.5709 28.504 36.1549 28.504C34.7629 28.504 33.4909 28.264 32.3389 27.784C31.2109 27.304 30.2389 26.632 29.4229 25.768C28.6069 24.88 27.9709 23.824 27.5149 22.6C27.0589 21.352 26.8309 19.984 26.8309 18.496C26.8309 17.008 27.0589 15.652 27.5149 14.428C27.9949 13.204 28.6429 12.16 29.4589 11.296C30.2989 10.432 31.2829 9.76 32.4109 9.28C33.5629 8.8 34.8109 8.56 36.1549 8.56C37.5229 8.56 38.7709 8.8 39.8989 9.28C41.0509 9.76 42.0349 10.432 42.8509 11.296C43.6669 12.16 44.3029 13.204 44.7589 14.428C45.2149 15.652 45.4429 17.008 45.4429 18.496ZM39.9709 18.496C39.9709 16.84 39.6349 15.544 38.9629 14.608C38.3149 13.648 37.3789 13.168 36.1549 13.168C34.9309 13.168 33.9829 13.648 33.3109 14.608C32.6389 15.544 32.3029 16.84 32.3029 18.496C32.3029 20.152 32.6389 21.472 33.3109 22.456C33.9829 23.416 34.9309 23.896 36.1549 23.896C37.3789 23.896 38.3149 23.416 38.9629 22.456C39.6349 21.472 39.9709 20.152 39.9709 18.496ZM60.0021 17.956C60.0021 16.228 59.7741 15.004 59.3181 14.284C58.8861 13.564 58.1301 13.204 57.0501 13.204C56.7141 13.204 56.3661 13.228 56.0061 13.276C55.6461 13.3 55.2981 13.336 54.9621 13.384V28H49.5981V9.712C50.0541 9.592 50.5821 9.472 51.1821 9.352C51.8061 9.208 52.4541 9.088 53.1261 8.992C53.8221 8.872 54.5301 8.788 55.2501 8.74C55.9701 8.668 56.6781 8.632 57.3741 8.632C58.7421 8.632 59.8461 8.812 60.6861 9.172C61.5501 9.508 62.2581 9.916 62.8101 10.396C63.5781 9.844 64.4541 9.412 65.4381 9.1C66.4461 8.788 67.3701 8.632 68.2101 8.632C69.7221 8.632 70.9581 8.848 71.9181 9.28C72.9021 9.688 73.6821 10.276 74.2581 11.044C74.8341 11.812 75.2301 12.724 75.4461 13.78C75.6621 14.836 75.7701 16.012 75.7701 17.308V28H70.4061V17.956C70.4061 16.228 70.1781 15.004 69.7221 14.284C69.2901 13.564 68.5341 13.204 67.4541 13.204C67.1661 13.204 66.7581 13.276 66.2301 13.42C65.7261 13.564 65.3061 13.744 64.9701 13.96C65.1381 14.512 65.2461 15.1 65.2941 15.724C65.3421 16.324 65.3661 16.972 65.3661 17.668V28H60.0021V17.956ZM87.8771 24.256C88.4051 24.256 88.9091 24.244 89.3891 24.22C89.8691 24.196 90.2531 24.16 90.5411 24.112V20.044C90.3251 19.996 90.0011 19.948 89.5691 19.9C89.1371 19.852 88.7411 19.828 88.3811 19.828C87.8771 19.828 87.3971 19.864 86.9411 19.936C86.5091 19.984 86.1251 20.092 85.7891 20.26C85.4531 20.428 85.1891 20.656 84.9971 20.944C84.8051 21.232 84.7091 21.592 84.7091 22.024C84.7091 22.864 84.9851 23.452 85.5371 23.788C86.1131 24.1 86.8931 24.256 87.8771 24.256ZM87.4451 8.56C89.0291 8.56 90.3491 8.74 91.4051 9.1C92.4611 9.46 93.3011 9.976 93.9251 10.648C94.5731 11.32 95.0291 12.136 95.2931 13.096C95.5571 14.056 95.6891 15.124 95.6891 16.3V27.46C94.9211 27.628 93.8531 27.82 92.4851 28.036C91.1171 28.276 89.4611 28.396 87.5171 28.396C86.2931 28.396 85.1771 28.288 84.1691 28.072C83.1851 27.856 82.3331 27.508 81.6131 27.028C80.8931 26.524 80.3411 25.876 79.9571 25.084C79.5731 24.292 79.3811 23.32 79.3811 22.168C79.3811 21.064 79.5971 20.128 80.0291 19.36C80.4851 18.592 81.0851 17.98 81.8291 17.524C82.5731 17.068 83.4251 16.744 84.3851 16.552C85.3451 16.336 86.3411 16.228 87.3731 16.228C88.0691 16.228 88.6811 16.264 89.2091 16.336C89.7611 16.384 90.2051 16.456 90.5411 16.552V16.048C90.5411 15.136 90.2651 14.404 89.7131 13.852C89.1611 13.3 88.2011 13.024 86.8331 13.024C85.9211 13.024 85.0211 13.096 84.1331 13.24C83.2451 13.36 82.4771 13.54 81.8291 13.78L81.1451 9.46C81.4571 9.364 81.8411 9.268 82.2971 9.172C82.7771 9.052 83.2931 8.956 83.8451 8.884C84.3971 8.788 84.9731 8.716 85.5731 8.668C86.1971 8.596 86.8211 8.56 87.4451 8.56ZM105.112 18.388C105.112 20.044 105.484 21.376 106.228 22.384C106.972 23.392 108.076 23.896 109.54 23.896C110.02 23.896 110.464 23.884 110.872 23.86C111.28 23.812 111.616 23.764 111.88 23.716V13.96C111.544 13.744 111.1 13.564 110.548 13.42C110.02 13.276 109.48 13.204 108.928 13.204C106.384 13.204 105.112 14.932 105.112 18.388ZM117.244 27.388C116.764 27.532 116.212 27.676 115.588 27.82C114.964 27.94 114.304 28.048 113.608 28.144C112.936 28.24 112.24 28.312 111.52 28.36C110.824 28.432 110.152 28.468 109.504 28.468C107.944 28.468 106.552 28.24 105.328 27.784C104.104 27.328 103.072 26.68 102.232 25.84C101.392 24.976 100.744 23.944 100.288 22.744C99.8555 21.52 99.6395 20.152 99.6395 18.64C99.6395 17.104 99.8315 15.724 100.216 14.5C100.6 13.252 101.152 12.196 101.872 11.332C102.592 10.468 103.468 9.808 104.5 9.352C105.556 8.896 106.756 8.668 108.1 8.668C108.844 8.668 109.504 8.74 110.08 8.884C110.68 9.028 111.28 9.232 111.88 9.496V0.927999L117.244 0.0639992V27.388ZM129.826 28.36C128.266 28.336 126.994 28.168 126.01 27.856C125.05 27.544 124.282 27.112 123.706 26.56C123.154 25.984 122.77 25.3 122.554 24.508C122.362 23.692 122.266 22.78 122.266 21.772V0.927999L127.63 0.0639992V20.692C127.63 21.172 127.666 21.604 127.738 21.988C127.81 22.372 127.942 22.696 128.134 22.96C128.35 23.224 128.65 23.44 129.034 23.608C129.418 23.776 129.934 23.884 130.582 23.932L129.826 28.36ZM141.42 24.256C141.948 24.256 142.452 24.244 142.932 24.22C143.412 24.196 143.796 24.16 144.084 24.112V20.044C143.868 19.996 143.544 19.948 143.112 19.9C142.68 19.852 142.284 19.828 141.924 19.828C141.42 19.828 140.94 19.864 140.484 19.936C140.052 19.984 139.668 20.092 139.332 20.26C138.996 20.428 138.732 20.656 138.54 20.944C138.348 21.232 138.252 21.592 138.252 22.024C138.252 22.864 138.528 23.452 139.08 23.788C139.656 24.1 140.436 24.256 141.42 24.256ZM140.988 8.56C142.572 8.56 143.892 8.74 144.948 9.1C146.004 9.46 146.844 9.976 147.468 10.648C148.116 11.32 148.572 12.136 148.836 13.096C149.1 14.056 149.232 15.124 149.232 16.3V27.46C148.464 27.628 147.396 27.82 146.028 28.036C144.66 28.276 143.004 28.396 141.06 28.396C139.836 28.396 138.72 28.288 137.712 28.072C136.728 27.856 135.876 27.508 135.156 27.028C134.436 26.524 133.884 25.876 133.5 25.084C133.116 24.292 132.924 23.32 132.924 22.168C132.924 21.064 133.14 20.128 133.572 19.36C134.028 18.592 134.628 17.98 135.372 17.524C136.116 17.068 136.968 16.744 137.928 16.552C138.888 16.336 139.884 16.228 140.916 16.228C141.612 16.228 142.224 16.264 142.752 16.336C143.304 16.384 143.748 16.456 144.084 16.552V16.048C144.084 15.136 143.808 14.404 143.256 13.852C142.704 13.3 141.744 13.024 140.376 13.024C139.464 13.024 138.564 13.096 137.676 13.24C136.788 13.36 136.02 13.54 135.372 13.78L134.688 9.46C135 9.364 135.384 9.268 135.84 9.172C136.32 9.052 136.836 8.956 137.388 8.884C137.94 8.788 138.516 8.716 139.116 8.668C139.74 8.596 140.364 8.56 140.988 8.56ZM154.083 9.712C154.995 9.448 156.171 9.208 157.611 8.992C159.051 8.752 160.563 8.632 162.146 8.632C163.755 8.632 165.087 8.848 166.143 9.28C167.223 9.688 168.075 10.276 168.699 11.044C169.323 11.812 169.767 12.724 170.031 13.78C170.295 14.836 170.427 16.012 170.427 17.308V28H165.063V17.956C165.063 16.228 164.835 15.004 164.379 14.284C163.923 13.564 163.071 13.204 161.823 13.204C161.439 13.204 161.031 13.228 160.599 13.276C160.167 13.3 159.783 13.336 159.447 13.384V28H154.083V9.712ZM179.854 18.388C179.854 20.044 180.226 21.376 180.97 22.384C181.714 23.392 182.818 23.896 184.282 23.896C184.762 23.896 185.206 23.884 185.614 23.86C186.022 23.812 186.358 23.764 186.622 23.716V13.96C186.286 13.744 185.842 13.564 185.29 13.42C184.762 13.276 184.222 13.204 183.67 13.204C181.126 13.204 179.854 14.932 179.854 18.388ZM191.986 27.388C191.506 27.532 190.954 27.676 190.33 27.82C189.706 27.94 189.046 28.048 188.35 28.144C187.678 28.24 186.982 28.312 186.262 28.36C185.566 28.432 184.894 28.468 184.246 28.468C182.686 28.468 181.294 28.24 180.07 27.784C178.846 27.328 177.814 26.68 176.974 25.84C176.134 24.976 175.486 23.944 175.03 22.744C174.598 21.52 174.382 20.152 174.382 18.64C174.382 17.104 174.574 15.724 174.958 14.5C175.342 13.252 175.894 12.196 176.614 11.332C177.334 10.468 178.21 9.808 179.242 9.352C180.298 8.896 181.498 8.668 182.842 8.668C183.586 8.668 184.246 8.74 184.822 8.884C185.422 9.028 186.022 9.232 186.622 9.496V0.927999L191.986 0.0639992V27.388Z" fill="#E20325"/>
</svg>
