<svg width="32" height="32" viewBox="0 0 32 32" fill="none" xmlns="http://www.w3.org/2000/svg">
<path d="M24 26H8C4.7 26 2 23.3 2 20V12C2 8.7 4.7 6 8 6H24C27.3 6 30 8.7 30 12V20C30 23.3 27.3 26 24 26ZM8 8C5.8 8 4 9.8 4 12V20C4 22.2 5.8 24 8 24H24C26.2 24 28 22.2 28 20V12C28 9.8 26.2 8 24 8H8Z" fill="black"/>
<path d="M16 17C14.8 17 13.6 16.6 12.6 15.9L3.90002 9.9C3.40002 9.6 3.30002 9 3.60002 8.5C3.90002 8 4.60002 7.9 5.00002 8.2L13.7 14.2C15.1 15.1 16.9 15.1 18.3 14.2L27 8.2C27.5 7.9 28.1 8 28.4 8.5C28.7 9 28.6 9.6 28.1 9.9L19.4 15.9C18.4 16.6 17.2 17 16 17Z" fill="black"/>
</svg>
