<svg width="13" height="12" viewBox="0 0 13 12" fill="none" xmlns="http://www.w3.org/2000/svg">
<path d="M12.7935 5.47061L8.35625 0.33594C8.27965 0.248029 8.18495 0.174942 8.07761 0.120879C7.97027 0.0668161 7.85239 0.032844 7.73076 0.0209152C7.60913 0.00898631 7.48614 0.019336 7.36886 0.0513692C7.25158 0.0834025 7.14232 0.136488 7.04737 0.207574C6.95201 0.278195 6.87273 0.365494 6.81409 0.464453C6.75544 0.563413 6.71859 0.672081 6.70565 0.784212C6.69271 0.896344 6.70394 1.00973 6.73869 1.11785C6.77344 1.22596 6.83102 1.32669 6.90813 1.41422L10.8719 6.00975L6.71319 10.6053C6.63502 10.6918 6.57613 10.7916 6.53989 10.8991C6.50364 11.0066 6.49076 11.1196 6.50197 11.2317C6.51318 11.3438 6.54826 11.4527 6.60522 11.5523C6.66217 11.6519 6.73987 11.7401 6.83386 11.8119C7.00214 11.9364 7.21222 12.003 7.42797 12.0002C7.56434 12.0004 7.69909 11.9729 7.82263 11.9197C7.94617 11.8664 8.05547 11.7887 8.14275 11.6921L12.7842 6.55745C12.922 6.40532 12.9983 6.21379 13 6.01556C13.0017 5.81734 12.9287 5.62473 12.7935 5.47061Z" fill="black"/>
<path d="M1.85821 0.335653C1.7031 0.152945 1.47562 0.0345222 1.22581 0.00643657C0.975991 -0.0216491 0.724305 0.0429028 0.526117 0.185892C0.327928 0.328881 0.199471 0.538594 0.169006 0.768896C0.138541 0.999199 0.208562 1.23123 0.363666 1.41393L4.37387 6.00946L0.21514 10.5964C0.136977 10.6829 0.0780862 10.7828 0.0418417 10.8902C0.00559718 10.9977 -0.00728932 11.1108 0.00392055 11.2228C0.0151304 11.3349 0.0502162 11.4439 0.107169 11.5434C0.164121 11.643 0.241821 11.7312 0.335818 11.8031C0.502828 11.9307 0.713025 12.0003 0.929921 11.9999C1.0663 12.0001 1.20105 11.9726 1.32459 11.9194C1.44813 11.8661 1.55742 11.7884 1.6447 11.6918L6.28614 6.55716C6.42267 6.40404 6.49731 6.21196 6.49731 6.01374C6.49731 5.81552 6.42267 5.62345 6.28614 5.47032L1.85821 0.335653Z" fill="black"/>
</svg>
