<svg width="27" height="27" viewBox="0 0 27 27" fill="none" xmlns="http://www.w3.org/2000/svg">
<path d="M26.101 24.6169L21.661 20.276L21.5569 20.1178C21.3634 19.9251 21.0989 19.8166 20.8227 19.8166C20.5466 19.8166 20.282 19.9251 20.0885 20.1178C16.3152 23.5795 10.501 23.7676 6.5018 20.5575C2.50261 17.3473 1.55945 11.7349 4.2978 7.44246C7.03616 3.15 12.6063 1.50942 17.3141 3.60876C22.022 5.70809 24.4066 10.8959 22.8866 15.7316C22.7771 16.081 22.8666 16.4609 23.1213 16.7283C23.376 16.9956 23.7573 17.1098 24.1215 17.0278C24.4857 16.9458 24.7774 16.6801 24.8869 16.3308C26.704 10.5922 23.9596 4.41659 18.4292 1.79903C12.8988 -0.818529 6.24196 0.907477 2.76507 5.86049C-0.711818 10.8135 0.0346473 17.5071 4.52158 21.6112C9.00851 25.7153 15.8893 25.9982 20.7129 22.2769L24.6441 26.1204C25.0501 26.5156 25.7065 26.5156 26.1125 26.1204C26.5181 25.7196 26.5181 25.0743 26.1125 24.6734L26.101 24.6169Z" fill="black"/>
</svg>
